<svg width="218" height="58" viewBox="0 0 218 58" fill="none" xmlns="http://www.w3.org/2000/svg">
<path d="M45.5052 57.2V23.36L33.3034 48H26.1259L13.924 23.36V57.2H0.844971V0.400001H15.0406L29.7146 30.08L44.4685 0.400001H58.5843V57.2H45.5052Z" fill="white"/>
<path d="M87.6583 58C82.8733 58 78.806 56.9867 75.4565 54.96C72.1602 52.9333 69.6347 50.2667 67.8802 46.96C66.1257 43.6533 65.2485 40.08 65.2485 36.24C65.2485 32.3467 66.1257 28.7467 67.8802 25.44C69.6347 22.1333 72.1868 19.4667 75.5363 17.44C78.8858 15.4133 82.9265 14.4 87.6583 14.4C92.3902 14.4 96.4309 15.4133 99.7804 17.44C103.13 19.4667 105.682 22.1333 107.436 25.44C109.191 28.7467 110.068 32.3467 110.068 36.24C110.068 40.08 109.191 43.6533 107.436 46.96C105.682 50.2667 103.13 52.9333 99.7804 54.96C96.4309 56.9867 92.3902 58 87.6583 58ZM78.3275 36.24C78.3275 39.4933 79.2048 42.1333 80.9593 44.16C82.767 46.1867 85 47.2 87.6583 47.2C90.2635 47.2 92.4434 46.1867 94.1979 44.16C96.0056 42.1333 96.9094 39.4933 96.9094 36.24C96.9094 32.9867 96.0056 30.3467 94.1979 28.32C92.4434 26.2933 90.2635 25.28 87.6583 25.28C85 25.28 82.767 26.2933 80.9593 28.32C79.2048 30.3467 78.3275 32.9867 78.3275 36.24Z" fill="white"/>
<path d="M141.438 57.6C137.717 57.6 134.208 56.9067 130.911 55.52C127.668 54.08 124.77 52.08 122.218 49.52C119.719 46.9067 117.752 43.84 116.317 40.32C114.934 36.7467 114.243 32.7733 114.243 28.4C114.243 24.4533 114.934 20.7733 116.317 17.36C117.752 13.9467 119.746 10.9333 122.298 8.32C124.903 5.70667 127.907 3.68 131.31 2.24C134.766 0.746665 138.487 0 142.475 0C147.685 0 152.258 1.12 156.192 3.36C160.18 5.6 163.157 8.61333 165.124 12.4L155.395 19.76C154.119 17.2533 152.258 15.28 149.812 13.84C147.366 12.4 144.761 11.68 141.996 11.68C139.125 11.68 136.6 12.4533 134.42 14C132.24 15.4933 130.539 17.5467 129.316 20.16C128.093 22.7733 127.482 25.68 127.482 28.88C127.482 32.1333 128.12 35.0667 129.396 37.68C130.672 40.24 132.426 42.2667 134.659 43.76C136.946 45.2 139.577 45.92 142.555 45.92C147.659 45.92 152.258 43.5733 156.352 38.88V37.04H145.346V27.52H167.198V57.2H156.352V51.6C152.045 55.6 147.074 57.6 141.438 57.6Z" fill="white"/>
<path d="M194.745 58C189.96 58 185.893 56.9867 182.543 54.96C179.247 52.9333 176.722 50.2667 174.967 46.96C173.213 43.6533 172.335 40.08 172.335 36.24C172.335 32.3467 173.213 28.7467 174.967 25.44C176.722 22.1333 179.274 19.4667 182.623 17.44C185.973 15.4133 190.013 14.4 194.745 14.4C199.477 14.4 203.518 15.4133 206.867 17.44C210.217 19.4667 212.769 22.1333 214.523 25.44C216.278 28.7467 217.155 32.3467 217.155 36.24C217.155 40.08 216.278 43.6533 214.523 46.96C212.769 50.2667 210.217 52.9333 206.867 54.96C203.518 56.9867 199.477 58 194.745 58ZM185.414 36.24C185.414 39.4933 186.292 42.1333 188.046 44.16C189.854 46.1867 192.087 47.2 194.745 47.2C197.35 47.2 199.53 46.1867 201.285 44.16C203.092 42.1333 203.996 39.4933 203.996 36.24C203.996 32.9867 203.092 30.3467 201.285 28.32C199.53 26.2933 197.35 25.28 194.745 25.28C192.087 25.28 189.854 26.2933 188.046 28.32C186.292 30.3467 185.414 32.9867 185.414 36.24Z" fill="white"/>
</svg>
