<svg width="20" height="20" viewBox="0 0 20 20" fill="none" xmlns="http://www.w3.org/2000/svg">
<path d="M7.74998 15C6.31521 15 4.91271 14.5743 3.72002 13.7768C2.52733 12.9792 1.5981 11.8457 1.04996 10.5198C0.501814 9.19389 0.359413 7.73513 0.64078 6.32823C0.922148 4.92132 1.61463 3.62953 2.63056 2.6164C3.6465 1.60327 4.94019 0.91436 6.34787 0.63688C7.75555 0.3594 9.21391 0.505831 10.5383 1.05763C11.8627 1.60944 12.9936 2.5418 13.7879 3.73668C14.5821 4.93157 15.0039 6.33524 15 7.77C14.992 9.68854 14.225 11.5259 12.8665 12.8807C11.508 14.2354 9.66853 14.9974 7.74998 15ZM7.74998 1.5C6.5147 1.50001 5.30712 1.86607 4.27975 2.55195C3.25238 3.23782 2.4513 4.21276 1.97767 5.35364C1.50404 6.49451 1.3791 7.75015 1.61864 8.96198C1.85819 10.1738 2.45146 11.2875 3.32354 12.1624C4.19561 13.0372 5.30739 13.6341 6.51845 13.8775C7.72951 14.1209 8.98554 14 10.1279 13.53C11.2703 13.06 12.2478 12.262 12.937 11.2369C13.6261 10.2117 13.996 9.00528 14 7.77C14 6.1124 13.3415 4.52269 12.1694 3.35059C10.9973 2.17848 9.40758 1.52 7.74998 1.52V1.5Z" fill="#414042"/>
<path d="M18.9999 19.52C18.9343 19.5208 18.8693 19.5079 18.809 19.4821C18.7487 19.4562 18.6945 19.4181 18.6499 19.37L12.1699 12.89C12.0771 12.7972 12.0249 12.6713 12.0249 12.54C12.0249 12.4087 12.0771 12.2828 12.1699 12.19C12.2627 12.0972 12.3886 12.045 12.5199 12.045C12.6512 12.045 12.7771 12.0972 12.8699 12.19L19.3499 18.67C19.3977 18.7149 19.4358 18.7691 19.4619 18.8293C19.488 18.8895 19.5014 18.9544 19.5014 19.02C19.5014 19.0856 19.488 19.1505 19.4619 19.2107C19.4358 19.2709 19.3977 19.3251 19.3499 19.37C19.3052 19.4181 19.251 19.4562 19.1907 19.4821C19.1305 19.5079 19.0655 19.5208 18.9999 19.52Z" fill="#414042"/>
</svg>
