<svg width="22" height="16" viewBox="0 0 22 16" fill="none" xmlns="http://www.w3.org/2000/svg">
<path d="M15.39 11.3101H11.2C11.0673 11.3101 10.9402 11.2574 10.8464 11.1636C10.7526 11.0698 10.7 10.9427 10.7 10.8101C10.7 10.6775 10.7526 10.5503 10.8464 10.4565C10.9402 10.3627 11.0673 10.3101 11.2 10.3101H15.39C15.5226 10.3101 15.6497 10.3627 15.7435 10.4565C15.8373 10.5503 15.89 10.6775 15.89 10.8101C15.89 10.9427 15.8373 11.0698 15.7435 11.1636C15.6497 11.2574 15.5226 11.3101 15.39 11.3101Z" fill="#414042"/>
<path d="M18.2099 11C18.1507 11.0141 18.0891 11.0141 18.0299 11C17.9683 10.9778 17.9118 10.9435 17.8636 10.899C17.8155 10.8546 17.7768 10.8009 17.7497 10.7413C17.7227 10.6816 17.7079 10.6171 17.7062 10.5516C17.7045 10.4862 17.716 10.421 17.7399 10.36L20.1199 4.00002C20.167 3.87723 20.2606 3.77793 20.3804 3.72365C20.5002 3.66937 20.6365 3.66447 20.7599 3.71002C20.8837 3.75932 20.9838 3.85423 21.0396 3.97518C21.0954 4.09612 21.1027 4.23387 21.0599 4.36002L18.6799 10.69C18.6396 10.7814 18.5739 10.8592 18.4905 10.9141C18.4072 10.9691 18.3098 10.9989 18.2099 11Z" fill="#414042"/>
<path d="M7.99989 11.1901C7.89556 11.1908 7.79371 11.1582 7.70917 11.0971C7.62464 11.0359 7.56183 10.9494 7.52989 10.8501L4.38989 1.31006H1.38989C1.25728 1.31006 1.13011 1.25738 1.03634 1.16361C0.942571 1.06984 0.889893 0.942667 0.889893 0.810059C0.892453 0.678252 0.945953 0.552557 1.03917 0.459338C1.13239 0.366119 1.25809 0.312619 1.38989 0.310059H4.74989C4.8535 0.312268 4.95398 0.345988 5.03794 0.406728C5.1219 0.467468 5.18537 0.552346 5.21989 0.650059L8.50989 10.5301C8.53181 10.5917 8.54115 10.6572 8.53736 10.7225C8.53357 10.7878 8.51673 10.8518 8.48784 10.9105C8.45894 10.9692 8.41857 11.0215 8.36912 11.0644C8.31967 11.1073 8.26212 11.1398 8.19989 11.1601C8.13637 11.1851 8.06797 11.1954 7.99989 11.1901Z" fill="#414042"/>
<path d="M9.5398 15.6901C8.94645 15.6901 8.36643 15.5141 7.87309 15.1845C7.37974 14.8548 6.99522 14.3863 6.76816 13.8381C6.54109 13.2899 6.48168 12.6867 6.59744 12.1048C6.7132 11.5229 6.99892 10.9883 7.41848 10.5687C7.83803 10.1492 8.37258 9.86346 8.95453 9.74771C9.53647 9.63195 10.1397 9.69136 10.6878 9.91843C11.236 10.1455 11.7046 10.53 12.0342 11.0234C12.3638 11.5167 12.5398 12.0967 12.5398 12.6901C12.5398 13.4857 12.2237 14.2488 11.6611 14.8114C11.0985 15.374 10.3354 15.6901 9.5398 15.6901ZM9.5398 10.6901C9.14423 10.6901 8.75755 10.8074 8.42866 11.0271C8.09976 11.2469 7.84341 11.5592 7.69204 11.9247C7.54066 12.2901 7.50105 12.6923 7.57823 13.0802C7.6554 13.4682 7.84588 13.8246 8.12558 14.1043C8.40529 14.384 8.76165 14.5745 9.14962 14.6516C9.53758 14.7288 9.93971 14.6892 10.3052 14.5378C10.6706 14.3864 10.983 14.1301 11.2027 13.8012C11.4225 13.4723 11.5398 13.0856 11.5398 12.6901C11.5398 12.1596 11.3291 11.6509 10.954 11.2759C10.5789 10.9008 10.0702 10.6901 9.5398 10.6901Z" fill="#414042"/>
<path d="M17.0498 15.6901C16.4565 15.6901 15.8764 15.5141 15.3831 15.1845C14.8897 14.8548 14.5052 14.3863 14.2782 13.8381C14.0511 13.2899 13.9917 12.6867 14.1075 12.1048C14.2232 11.5229 14.5089 10.9883 14.9285 10.5687C15.348 10.1492 15.8826 9.86346 16.4645 9.74771C17.0465 9.63195 17.6497 9.69136 18.1979 9.91843C18.746 10.1455 19.2146 10.53 19.5442 11.0234C19.8739 11.5167 20.0498 12.0967 20.0498 12.6901C20.0498 13.4857 19.7337 14.2488 19.1711 14.8114C18.6085 15.374 17.8455 15.6901 17.0498 15.6901ZM17.0498 10.6901C16.6542 10.6901 16.2676 10.8074 15.9387 11.0271C15.6098 11.2469 15.3534 11.5592 15.202 11.9247C15.0507 12.2901 15.0111 12.6923 15.0882 13.0802C15.1654 13.4682 15.3559 13.8246 15.6356 14.1043C15.9153 14.384 16.2717 14.5745 16.6596 14.6516C17.0476 14.7288 17.4497 14.6892 17.8152 14.5378C18.1806 14.3864 18.493 14.1301 18.7127 13.8012C18.9325 13.4723 19.0498 13.0856 19.0498 12.6901C19.0498 12.1596 18.8391 11.6509 18.464 11.2759C18.0889 10.9008 17.5802 10.6901 17.0498 10.6901Z" fill="#414042"/>
</svg>
